<svg width="87" height="80" viewBox="0 0 87 80" fill="none" xmlns="http://www.w3.org/2000/svg">
<path opacity="0.15" fill-rule="evenodd" clip-rule="evenodd" d="M10.68 39.4567C8.01904 41.1686 5.07851 44.0081 3.14808 45.8719C1.21766 47.7357 0.297342 48.6249 0.0545867 49.853C-0.188048 51.0812 0.246871 52.6481 4.08521 56.2238C7.92368 59.8007 15.1656 65.3862 19.0332 68.8509C22.9008 72.3152 23.3946 73.659 24.3155 75.1763C25.2364 76.6935 26.5821 78.3842 28.0415 79.1861C29.501 79.9881 31.0717 79.9014 32.1028 79.0521C33.1338 78.2028 33.6251 76.591 34.5896 75.7239C35.5553 74.8569 36.9954 74.7349 38.5674 74.7389C40.1406 74.7428 41.8469 74.8729 42.9687 74.4177C44.0917 73.9625 44.6302 72.9221 45.9093 73.2039C47.1884 73.4857 49.2094 75.0896 50.2864 76.4334C51.3635 77.7772 51.499 78.861 52.8677 79.0778C54.2376 79.2946 56.8406 78.6443 59.9168 77.3305C62.9918 76.0169 66.5375 74.0397 70.3991 71.9372C74.2594 69.8348 78.4344 67.6076 81.3303 65.8864C84.2262 64.1651 85.8429 62.9522 86.6283 61.4132C87.4137 59.8743 87.3689 58.0093 86.7857 56.6223C86.2011 55.2353 85.0793 54.325 84.15 53.4381C83.2218 52.55 82.486 51.6853 82.29 50.1475C82.0939 48.6109 82.4376 46.4012 81.0544 45.0563C79.6712 43.7113 76.5623 43.231 72.7625 41.8416C68.9626 40.4534 64.473 38.1561 59.7147 35.902C54.9552 33.6468 49.927 31.4359 45.8416 30.1366C41.7573 28.836 38.6146 28.4457 34.1479 29.6715C29.6825 30.8961 23.8931 33.7379 19.8077 35.4498C15.7222 37.1629 13.3407 37.746 10.68 39.4567Z" fill="#002C22"/>
<path fill-rule="evenodd" clip-rule="evenodd" d="M16.4844 51.748L43.615 36.6221L80.6363 57.2612L51.4864 73.512L16.4844 51.748Z" fill="#020618"/>
<path fill-rule="evenodd" clip-rule="evenodd" d="M16.4844 39.2332L43.615 24.1085L80.6363 44.7475L51.4864 60.9984L16.4844 39.2332Z" fill="#020618"/>
<path fill-rule="evenodd" clip-rule="evenodd" d="M16.7188 39.2395L51.4878 60.8594L80.3889 44.7479L43.6136 24.2459L16.7188 39.2395Z" fill="#A4F4CF"/>
<mask id="mask0_291_4759" style="mask-type:luminance" maskUnits="userSpaceOnUse" x="16" y="24" width="65" height="37">
<path d="M16.7188 39.2392L51.4877 60.8594L80.3884 44.7478L43.6133 24.2459L16.7188 39.2392Z" fill="white"/>
</mask>
<g mask="url(#mask0_291_4759)">
<g opacity="0.3">
<path fill-rule="evenodd" clip-rule="evenodd" d="M43.279 57.6525C47.1615 57.2633 47.6702 53.4932 48.5624 49.7243C49.4535 45.9543 50.7259 42.1843 52.6356 40.1762C54.5452 38.1692 57.0911 37.9231 59.6162 38.1071C62.1414 38.2923 64.6447 38.9066 66.8725 39.624C69.1002 40.3403 71.0524 41.1597 73.1102 40.2172C75.168 39.2747 77.3326 36.5714 76.4208 32.125C75.5079 27.6797 71.5186 21.4925 63.478 16.6569C55.4363 11.8224 43.3422 8.33953 34.7067 7.33493C26.0713 6.33144 20.8947 7.80618 16.8629 12.1705C12.8323 16.5338 9.94655 23.7866 11.4738 30.9164C13.0011 38.0462 18.9425 45.0528 25.5408 50.0514C32.1391 55.0511 39.3965 58.0417 43.279 57.6525Z" fill="#5EE9B5"/>
</g>
</g>
<path fill-rule="evenodd" clip-rule="evenodd" d="M16.4828 39.2333C14.7399 42.9117 14.7716 47.0919 16.4828 51.7471L51.4848 73.512C50.207 69.3414 50.1783 65.1698 51.4848 60.9982L16.4828 39.2333Z" fill="#020618"/>
<path fill-rule="evenodd" clip-rule="evenodd" d="M16.5378 39.4078C14.6996 43.3924 15.108 47.628 16.5863 51.6699L51.2781 73.2415C50.0934 69.1796 50.0885 65.1082 51.3423 61.0502L16.5378 39.4078Z" fill="#005F78"/>
<path fill-rule="evenodd" clip-rule="evenodd" d="M80.6344 44.7475C79.2415 49.753 79.4238 53.8151 80.6344 57.2612L51.4845 73.512C50.2073 69.3416 50.1781 65.17 51.4845 60.9984L80.6344 44.7475Z" fill="#020618"/>
<path fill-rule="evenodd" clip-rule="evenodd" d="M80.442 44.9927L51.5892 61.0775C50.3211 65.1591 50.3375 69.2507 51.56 73.3345L80.4876 57.2068C79.1027 53.1918 79.3538 49.0404 80.442 44.9927Z" fill="#F1F5F9"/>
<mask id="mask1_291_4759" style="mask-type:luminance" maskUnits="userSpaceOnUse" x="50" y="44" width="31" height="30">
<path d="M80.4417 44.9926L51.5892 61.0775C50.3207 65.1592 50.338 69.2502 51.5599 73.334L80.4871 57.2075C79.103 53.1919 79.3537 49.0403 80.4417 44.9926Z" fill="white"/>
</mask>
<g mask="url(#mask1_291_4759)">
<path fill-rule="evenodd" clip-rule="evenodd" d="M79.6154 49.4879C78.693 49.8679 78.8413 49.0888 78.4069 49.0065C77.9713 48.9253 76.9531 49.5398 75.0755 50.5737C73.1978 51.6088 70.4608 53.0633 67.7447 54.3746C65.0287 55.6859 62.3348 56.854 60.3194 58.2262C58.3028 59.5996 56.967 61.177 56.2454 62.5086C55.5237 63.8402 55.4175 64.926 55.5985 65.7761C55.7783 66.6263 56.2454 67.2408 57.1573 67.4663C58.0693 67.6918 59.4273 67.5272 61.0609 66.9645C62.6957 66.4008 64.6048 65.4379 66.3529 64.6013C68.1009 63.7646 69.6866 63.0543 71.6285 62.4702C73.5692 61.8862 75.866 61.4295 76.8866 62.1838C77.9083 62.9382 77.6537 64.9057 74.0467 67.7324C70.4398 70.5602 63.4804 74.2472 58.6952 75.7535C53.9112 77.2593 51.3014 76.5832 50.0706 74.9954C48.8399 73.4072 48.9894 70.9086 49.2649 67.6613C49.5405 64.4141 49.9434 60.4181 52.6279 57.0277C55.3112 53.6372 60.2762 50.8511 64.5231 48.4585C68.77 46.0659 72.2987 44.0668 74.919 43.0329C77.5393 41.9978 79.2511 41.9279 80.7014 42.5886C82.1517 43.2505 83.3392 44.643 82.9363 46.1076C82.5335 47.5734 80.5391 49.1091 79.6154 49.4879Z" fill="#E2E8F0"/>
</g>
<path fill-rule="evenodd" clip-rule="evenodd" d="M22.3797 0.000144958L51.0561 22.3991L41.6733 71.6575L14.3516 51.364L22.3797 0.000144958Z" fill="#020618"/>
<path fill-rule="evenodd" clip-rule="evenodd" d="M13.3562 0.000144958L42.0326 22.3991L32.6485 71.6575L5.32812 51.364L13.3562 0.000144958Z" fill="#020618"/>
<path fill-rule="evenodd" clip-rule="evenodd" d="M13.4031 0.13327L41.9556 22.4347L32.6032 71.5306L5.40234 51.3261L13.4031 0.13327Z" fill="#A4F4CF"/>
<mask id="mask2_291_4759" style="mask-type:luminance" maskUnits="userSpaceOnUse" x="5" y="0" width="37" height="72">
<path d="M13.4032 0.133018L41.9556 22.4351L32.6033 71.5306L5.40234 51.3262L13.4032 0.133018Z" fill="white"/>
</mask>
<g mask="url(#mask2_291_4759)">
<path opacity="0.3" fill-rule="evenodd" clip-rule="evenodd" d="M11.8185 -2.65752C11.4161 -0.527122 11.3815 1.78493 13.3163 4.04639C15.2524 6.30901 19.1565 8.52217 22.5296 11.616C25.9027 14.7087 28.746 18.6832 30.0188 22.6991C31.2928 26.715 30.9952 30.7712 30.3379 35.1964C29.6795 39.6216 28.6615 44.4158 28.0459 48.6571C27.4303 52.8983 27.2184 56.5854 26.7302 58.7986C26.2421 61.0106 25.4789 61.7487 24.3335 61.6671C23.1869 61.5843 21.6593 60.6829 20.3817 60.0115C19.1041 59.3401 18.0766 58.8986 16.9312 58.6939C15.7858 58.4882 14.5213 58.5203 13.9533 60.1955C13.3854 61.8717 13.5116 65.1909 16.6942 68.7147C19.8768 72.2386 26.1159 75.9669 33.1383 76.1513C40.1608 76.3356 47.9691 72.9758 52.8127 65.0518C57.6563 57.1269 59.5363 44.6389 59.5149 35.2355C59.4934 25.8309 57.5717 19.5122 54.3617 15.0824C51.1517 10.6526 46.6534 8.11172 39.6726 4.46487C32.693 0.818024 23.2297 -3.93484 18.1123 -5.33632C12.9949 -6.7378 12.2221 -4.78906 11.8185 -2.65752Z" fill="#5EE9B5"/>
</g>
<path fill-rule="evenodd" clip-rule="evenodd" d="M13.3594 1.14441e-05C17.0625 0.816862 20.0292 0.767391 22.3836 1.14441e-05L51.06 22.399C48.0516 22.399 45.0431 22.399 42.0358 22.399L13.3594 1.14441e-05Z" fill="#020618"/>
<path fill-rule="evenodd" clip-rule="evenodd" d="M13.8203 0.219223C15.3217 0.526194 16.8541 0.719343 18.3769 0.713594C19.7164 0.707846 21.0702 0.54574 22.3644 0.129549L50.7246 22.2808C47.8373 22.2808 44.9511 22.2808 42.065 22.2808L13.8203 0.219223Z" fill="#F1F5F9"/>
<path fill-rule="evenodd" clip-rule="evenodd" d="M41.6733 71.6582C39.1386 72.5912 36.1967 72.7219 32.6484 71.6582L42.0322 22.3994H51.056L41.6733 71.6582Z" fill="#020618"/>
<path fill-rule="evenodd" clip-rule="evenodd" d="M41.5867 71.565C38.6794 72.6199 35.6935 72.4336 32.7695 71.5711L42.113 22.5177H50.9301L41.5867 71.565Z" fill="#00BC7D"/>
<path fill-rule="evenodd" clip-rule="evenodd" d="M54.4453 63.9771C69.7056 55.0862 62.0433 59.4751 77.4334 50.8137C62.1731 59.7047 69.8355 55.3158 54.4453 63.9771Z" fill="#020618"/>
<path fill-rule="evenodd" clip-rule="evenodd" d="M59.9141 63.8651C67.9195 59.2014 63.8995 61.5031 71.9729 56.959C63.9675 61.6237 67.9875 59.322 59.9141 63.8651Z" fill="#020618"/>
<path fill-rule="evenodd" clip-rule="evenodd" d="M54.1211 64.0589L60.3778 60.5329L63.6898 65.5145L59.3803 65.2719L57.4959 69.4661L54.1211 64.0589Z" fill="#020618"/>
<path fill-rule="evenodd" clip-rule="evenodd" d="M54.3281 64.1133L57.4719 69.1502L59.2862 65.1149L63.3961 65.3469L60.3288 60.7328L54.3281 64.1133Z" fill="#005F78"/>
<path fill-rule="evenodd" clip-rule="evenodd" d="M39.0334 17.1204C30.4018 10.5571 34.6907 13.8698 26.168 7.18363C34.7995 13.7469 30.5107 10.4343 39.0334 17.1204Z" fill="#020618"/>
<path fill-rule="evenodd" clip-rule="evenodd" d="M36.9731 14.0516C32.2241 10.4408 34.5832 12.2632 29.8945 8.58551C34.6435 12.1962 32.2844 10.3739 36.9731 14.0516Z" fill="#020618"/>
<path fill-rule="evenodd" clip-rule="evenodd" d="M32.0869 75.8461C31.3565 76.5514 30.1612 76.5514 29.4308 75.8461L27.4423 73.926C26.7119 73.2207 26.7119 72.0666 27.4423 71.3613L29.8284 69.0573L34.4729 73.5413L32.0869 75.8461Z" fill="#020618"/>
<path fill-rule="evenodd" clip-rule="evenodd" d="M32.0101 75.771L34.3193 73.5413L29.8291 69.2056L27.52 71.4354C26.8319 72.0998 26.8319 73.1869 27.52 73.8513L29.5081 75.771C30.1962 76.4354 31.322 76.4354 32.0101 75.771Z" fill="#005F78"/>
<path fill-rule="evenodd" clip-rule="evenodd" d="M59.8284 49.0612L58.6005 50.2469L53.9492 45.7555L55.1803 44.5658L62.5454 42.506L59.8284 49.0612Z" fill="#020618"/>
<path fill-rule="evenodd" clip-rule="evenodd" d="M59.7306 48.9994L62.3526 42.6739L55.2408 44.664L54.1094 45.7555L58.6002 50.0909L59.7306 48.9994Z" fill="#F1F5F9"/>
<path fill-rule="evenodd" clip-rule="evenodd" d="M61.5059 44.7192C61.2722 44.6192 61.0597 44.4773 60.879 44.3027C60.5777 44.0128 60.3779 43.6443 60.3007 43.2411L60.2891 43.1788L62.4795 42.5663L61.5746 44.7488L61.5059 44.7192Z" fill="#020618"/>
<path fill-rule="evenodd" clip-rule="evenodd" d="M61.5342 44.6558L62.3561 42.6738L60.3711 43.2287C60.4429 43.6041 60.6289 43.9632 60.9289 44.2529C61.1095 44.4273 61.3145 44.561 61.5342 44.6558Z" fill="#45556C"/>
<path fill-rule="evenodd" clip-rule="evenodd" d="M57.5728 48.2597L59.7936 49.0958L34.316 73.6971L29.6641 69.2061L55.0761 44.6681L57.1305 45.6449L57.5728 48.2597Z" fill="#020618"/>
<path fill-rule="evenodd" clip-rule="evenodd" d="M59.5921 49.1364L34.3176 73.5416L29.8281 69.2055L55.1016 44.8014L57.0298 45.7187L57.4737 48.3394L59.5921 49.1364Z" fill="#D0FAE5"/>
<mask id="mask3_291_4759" style="mask-type:luminance" maskUnits="userSpaceOnUse" x="29" y="44" width="31" height="30">
<path d="M59.5926 49.137L34.3185 73.5418L29.8281 69.2059L55.1022 44.8011L57.0308 45.7189L57.4742 48.3397L59.5926 49.137Z" fill="white"/>
</mask>
<g mask="url(#mask3_291_4759)">
<path fill-rule="evenodd" clip-rule="evenodd" d="M57.8903 45.0914L30.5508 71.4906L32.0228 72.9119L59.3623 46.5138L57.8903 45.0914Z" fill="#020618"/>
<path fill-rule="evenodd" clip-rule="evenodd" d="M57.8882 45.2399L30.7031 71.4909L32.0213 72.7637L59.2063 46.5127L57.8882 45.2399Z" fill="#A4F4CF"/>
<path fill-rule="evenodd" clip-rule="evenodd" d="M61.0398 48.0956L33.6617 74.533L31.9258 72.8568L59.3039 46.4204L61.0398 48.0956Z" fill="#020618"/>
<path fill-rule="evenodd" clip-rule="evenodd" d="M60.8806 48.1037L33.6719 74.3765L32.0898 72.8488L59.2985 46.576L60.8806 48.1037Z" fill="#00D492"/>
</g>
<path fill-rule="evenodd" clip-rule="evenodd" d="M34.6328 73.8484C34.3567 74.1151 33.9055 74.1151 33.6293 73.8484L29.5079 69.8687C29.2317 69.602 29.2317 69.1656 29.5079 68.8989C29.7832 68.6322 30.2352 68.6322 30.5114 68.8989L34.6328 72.8786C34.909 73.1452 34.909 73.5817 34.6328 73.8484Z" fill="#020618"/>
<path fill-rule="evenodd" clip-rule="evenodd" d="M34.5575 73.7739C34.7908 73.5477 34.7908 73.1785 34.5575 72.9531L30.4359 68.9733C30.2016 68.748 29.8192 68.748 29.5858 68.9733C29.3516 69.1986 29.3516 69.5679 29.5858 69.7941L33.7074 73.7739C33.9408 73.9993 34.3232 73.9993 34.5575 73.7739Z" fill="#053345"/>
</svg>
