<svg width="101" height="102" viewBox="0 0 101 102" fill="none" xmlns="http://www.w3.org/2000/svg">
<path opacity="0.3" d="M88 89.4111C88 96.0385 68.3005 101.411 44 101.411C19.6995 101.411 0 96.0385 0 89.4111C0 82.7837 19.6995 77.4111 44 77.4111C68.3005 77.4111 88 82.7837 88 89.4111Z" fill="#0069A8"/>
<path d="M99.9602 84.4723C97.9065 80.9654 91.665 79.1398 88.2002 78.3853C87.3167 78.1897 86.4297 78.0174 85.5435 77.8684C87.7154 77.0301 90.5853 76.0194 91.6946 73.5092C92.0763 72.6429 92.1256 71.6649 91.8505 70.7521C91.2018 68.6051 89.0863 67.152 87.3624 66.2207C83.7327 64.2599 79.7903 63.4728 75.8363 62.8907L75.9303 62.8534C79.4086 61.419 85.5552 60.4829 87.3087 56.2262C87.633 55.4391 87.6411 54.6381 87.3741 53.8277C86.6555 51.6621 84.1879 50.2649 82.4138 49.3847C77.984 47.1958 73.2818 46.3016 68.5356 45.5146C71.4996 44.7182 77.2367 42.9763 78.94 39.8887C79.3145 39.2134 79.4704 38.4169 79.2975 37.6392C78.9857 36.2002 77.725 35.1667 76.657 34.4634C73.6644 32.4746 70.0302 32.0417 66.6424 31.6636C68.2606 30.5041 70.1081 29.4513 70.6341 27.1972C70.4074 25.8934 69.8904 25.1993 68.9254 24.4686C64.2402 20.9199 55.9872 20.7146 50.6533 21.9676C47.4868 22.7125 43.5329 24.5713 41.6728 27.747C41.1925 28.5671 40.7408 29.7175 40.9379 30.7185C41.1103 31.6128 41.6728 32.2043 42.334 32.6748C42.8431 33.0335 43.3933 33.3262 43.9477 33.5874C40.786 34.1463 35.2138 35.5528 33.2141 38.6731C32.9513 39.083 32.8036 39.5998 32.6927 40.0888C33.0745 41.7655 34.0395 42.9485 35.3412 43.8286C36.9672 44.9277 38.9998 45.4167 40.8311 45.8825C41.1021 45.9523 41.7919 46.0269 41.9562 46.2318L41.8002 46.1805L41.7879 46.283C40.6586 46.6928 39.2461 46.7255 38.0636 47.0003C34.3927 47.8431 28.2211 49.9529 26.3692 54.0187C26.053 54.7126 25.8764 55.5137 26.0858 56.2821C26.4883 57.7444 28.2087 58.7504 29.3502 59.3698C32.0973 60.8601 34.91 61.582 37.8172 62.4902C33.8629 62.9326 28.1636 64.1948 25.5069 67.8693C24.9526 68.6377 24.4927 69.6111 24.5953 70.631C24.7062 71.7208 25.4001 72.4799 26.127 73.1226C27.7489 74.5617 29.9497 75.5583 31.9084 76.2197C32.7338 76.4991 33.6125 76.7041 34.4132 77.0626C28.1965 77.6075 19.2491 79.0932 14.9007 84.7564C14.3463 85.4782 13.9481 86.3119 14.0055 87.2899C14.0672 88.3378 14.6748 89.3531 15.3729 90.0051C15.4058 90.0331 15.4344 90.061 15.4673 90.089C15.685 90.2612 15.9108 90.4242 16.1408 90.5733C19.5982 92.8041 23.8686 93.4794 27.7243 94.3177C28.7508 94.5366 29.7774 94.7414 30.8039 94.9371C31.8304 95.1327 32.861 95.319 33.8917 95.4913C34.9224 95.6636 35.9571 95.8266 36.9919 95.9804C38.0266 96.134 39.0614 96.2737 40.0961 96.4041C41.1308 96.5345 42.1698 96.651 43.2086 96.7581C44.2478 96.8652 45.2862 96.963 46.3256 97.0468C47.3641 97.1306 48.407 97.2051 49.4455 97.2704C50.4884 97.3309 51.5278 97.3822 52.5707 97.424C53.6137 97.466 54.6566 97.494 55.6951 97.5126C56.738 97.5311 57.781 97.5358 58.8239 97.5311C59.8677 97.5265 60.9107 97.5126 61.9536 97.4846C62.9966 97.4567 64.0395 97.4194 65.078 97.3728C66.1209 97.3216 67.1603 97.2657 68.2032 97.1912C69.2417 97.1213 70.2846 97.0376 71.3231 96.9444C72.3625 96.8512 73.4009 96.7441 74.4403 96.6323C75.4788 96.5159 76.5136 96.3901 77.5485 96.2505C82.3359 95.6356 87.0461 94.9603 91.6982 93.4887C93.4929 92.9205 98.523 91.1368 99.471 89.2273C100.018 88.8129 100.379 87.9466 100.514 87.2293C100.695 86.2467 100.436 85.2873 99.9602 84.4723Z" fill="#FAFAFA"/>
<path d="M100.515 87.2154C100.384 87.9326 100.018 88.7988 99.4717 89.2134C98.5192 91.1228 93.4936 92.9065 91.6989 93.4747C87.0468 94.9464 82.341 95.6217 77.5492 96.2364C76.5144 96.3762 75.4759 96.5019 74.441 96.6183C73.4016 96.7348 72.3632 96.8372 71.3238 96.9303C70.2854 97.0235 69.2469 97.1074 68.204 97.1772C67.161 97.2471 66.1217 97.3077 65.0787 97.3589C64.0358 97.4101 62.9928 97.4473 61.9543 97.4706C60.9114 97.4985 59.8685 97.5125 58.8246 97.5172C57.7817 97.5219 56.7387 97.5125 55.6958 97.4985C54.6528 97.4799 53.6099 97.452 52.5714 97.4101C51.5285 97.3681 50.4891 97.3169 49.4462 97.2563C48.4032 97.1912 47.3648 97.1213 46.3263 97.0329C45.2869 96.949 44.2485 96.8512 43.2093 96.7441C42.1705 96.6369 41.1316 96.5159 40.0969 96.3901C39.0621 96.2597 38.0232 96.12 36.9926 95.9663C35.9619 95.8127 34.9272 95.6497 33.8924 95.4773C32.8617 95.305 31.8311 95.1187 30.8046 94.9231C29.7781 94.7275 28.7515 94.5226 27.725 94.3037C23.8652 93.4654 19.5948 92.7855 16.1415 90.5593C15.9115 90.4103 15.6857 90.2473 15.468 90.0749C15.4352 90.047 15.4065 90.019 15.3736 89.9911C14.6755 89.3391 14.0679 88.3285 14.0062 87.276C13.9447 86.2979 14.3471 85.4596 14.9014 84.7424C19.2458 79.0792 28.1972 77.5936 34.4139 77.0487C33.6173 76.69 32.7345 76.4852 31.9091 76.2057C29.9505 75.5444 27.7455 74.5478 26.1277 73.1087C25.405 72.466 24.7069 71.7069 24.596 70.617C24.4934 69.5971 24.9533 68.6191 25.5076 67.8553C28.1602 64.1807 33.8595 62.9187 37.8179 62.4762C34.9107 61.5681 32.098 60.8461 29.3509 59.3559C28.2094 58.7364 26.4931 57.7305 26.0865 56.2681C25.8772 55.4996 26.0538 54.6986 26.37 54.0046C28.2218 49.9389 34.3934 47.8292 38.0643 46.9862C39.2468 46.7161 40.6594 46.6788 41.7886 46.2691L41.8009 46.1665L41.957 46.2178C41.7926 46.0175 41.1069 45.9384 40.8319 45.8685C39.0005 45.4075 36.9679 44.9138 35.3419 43.8146C34.0402 42.9344 33.0794 41.7515 32.6934 40.0749C32.8043 39.5859 32.9521 39.0736 33.2149 38.6591C35.2146 35.5386 40.7826 34.1321 43.9484 33.5732C43.3982 33.313 42.8438 33.0193 42.3347 32.6606C41.6777 32.1951 41.111 31.5986 40.9386 30.7043C40.7415 29.6982 41.1972 28.5478 41.6735 27.7328C43.5336 24.5662 47.4875 22.7085 50.654 21.9625C55.9879 20.7105 64.2409 20.9148 68.9261 24.4635C69.8911 25.1952 70.4081 25.8893 70.6348 27.1932C70.1044 29.4472 68.2613 30.5 66.6431 31.6596C70.0309 32.0366 73.6687 32.4695 76.6577 34.4583C77.7213 35.1666 78.9819 36.1951 79.2982 37.6345C79.4667 38.4169 79.3108 39.2134 78.9407 39.884C77.2374 42.9763 71.4968 44.7182 68.5364 45.5099C73.2789 46.297 77.9847 47.1912 82.4145 49.3801C84.1886 50.2556 86.6562 51.6574 87.3748 53.823C87.6418 54.6334 87.6337 55.4391 87.3094 56.2215C85.5523 60.4782 79.4093 61.4143 75.9311 62.8487L75.837 62.886C79.791 63.4681 83.737 64.2552 87.3631 66.216C89.087 67.1474 91.2025 68.6005 91.8512 70.7474C92.1263 71.6602 92.077 72.6383 91.6953 73.5045C90.586 76.0147 87.7162 77.0254 85.5443 77.8637C86.4304 78.0173 87.3174 78.1897 88.2009 78.3807C91.6657 79.1351 97.9117 80.9607 99.9609 84.4677C100.437 85.2873 100.696 86.2467 100.515 87.2154Z" fill="#141311"/>
<path d="M54.957 22.0793C59.49 21.7488 65.2509 22.2609 69.0944 25.2926C68.3347 25.8381 67.5504 26.3406 66.7458 26.7969C65.9411 27.2533 65.1196 27.6586 64.2778 28.017C63.3826 25.3165 59.9049 23.8632 57.6462 23.0668C56.7924 22.7642 55.8354 22.5587 55.035 22.1263C55.0062 22.1072 54.9816 22.0937 54.957 22.0793Z" fill="#D4D4D4"/>
<path d="M64.3736 28.3249C65.2528 27.8355 66.1724 27.449 67.0552 26.9653C67.6177 26.6527 68.1186 26.1641 68.6974 25.9126C68.9114 25.8194 69.1573 25.7543 69.379 25.8427C69.6666 25.9592 69.8799 26.2991 69.9996 26.6061C70.1307 26.946 70.0322 27.3518 69.9047 27.6724C69.0751 29.8388 65.5114 31.687 63.6389 32.4512C58.1532 34.6818 48.9302 35.5577 43.5394 32.6512C43.0959 32.4142 42.6772 32.1201 42.2578 31.8316C44.3606 32.1112 46.4626 32.0695 48.5774 32.055C54.0384 31.5568 59.2039 30.3836 64.3736 28.3249Z" fill="#A1A1A1"/>
<path d="M48.5763 32.0505C54.0336 31.5527 59.2028 30.383 64.3727 28.32C64.1472 29.0652 63.5265 29.382 62.9355 29.708C59.1907 31.7756 53.6391 33.0751 49.4958 32.5628C48.9829 32.4979 48.3872 32.4887 47.8984 32.2971L47.9684 32.1573H48.0385C48.2438 32.1528 48.3912 32.1344 48.5763 32.0505Z" fill="#D4D4D4"/>
<path d="M43.9609 34.1552C45.3737 33.8759 46.8601 34.6775 48.2767 34.8447C53.6601 35.4877 60.9685 34.943 65.8754 32.1064C69.8796 32.5209 75.6604 33.126 78.4365 36.9263C78.4654 36.9642 78.4897 37.0013 78.5186 37.0426C76.6712 38.3054 72.2323 39.8422 70.1212 40.0939C69.9616 39.9448 69.7519 39.8655 69.5467 39.837C65.5517 39.2414 61.5065 39.0225 57.5031 38.445C53.5575 37.877 49.9523 36.9875 46.2028 35.4222C45.4436 35.1059 44.4747 34.9102 43.9609 34.1552Z" fill="#FFD230"/>
<path d="M78.4825 37.3922C78.6838 37.4995 78.7539 37.5928 78.8157 37.8488C78.914 38.2448 78.8279 38.6261 78.6762 38.985C77.6699 41.3879 74.4962 42.7947 72.3936 43.6101C63.1919 47.1864 52.6553 47.5867 43.1326 45.6914C40.632 45.1933 37.9958 44.6019 35.6965 43.3299C34.8877 42.7299 34.2679 42.1151 33.6641 41.2582C34.4112 41.6585 35.2368 41.9473 36.0373 42.1704C44.2868 44.4947 71.5107 42.1471 78.4825 37.3922Z" fill="#FFD230"/>
<path d="M64.2786 28.0124C63.4204 28.39 62.55 28.7394 61.671 29.0514C56.2345 30.9837 50.338 32.06 44.6426 31.8312C43.7931 31.7991 42.6598 31.8922 41.8958 31.4406C41.6577 31.1606 41.5796 30.9234 41.5507 30.5366C41.4646 29.3634 42.1096 28.2405 42.754 27.3884C45.6246 23.5879 50.7819 22.4101 54.9492 22.079C54.9741 22.0935 55.003 22.1072 55.0272 22.1255C55.8283 22.5634 56.7847 22.7686 57.6389 23.0669C59.9054 23.8633 63.3793 25.3111 64.2786 28.0124Z" fill="#D4D4D4"/>
<path d="M50.3542 24.1145C51.0731 24.017 51.8161 24.0633 52.5388 24.0682C49.3645 25.1717 47.5867 26.3412 44.897 28.4923C44.6343 28.6837 44.3592 28.8835 44.0637 28.9999C43.772 29.117 43.5624 29.1352 43.2873 28.9866L43.2422 28.6879C43.3207 28.4039 43.4233 28.1761 43.5834 27.9433C45.012 25.8939 48.0997 24.4222 50.3542 24.1145Z" fill="#FAFAFA"/>
<path d="M70.1204 40.0983C67.7223 40.7411 65.2053 41.0898 62.7619 41.4675C54.8785 42.6783 45.4997 43.6843 37.6361 42.2774C36.5076 42.0773 35.0369 41.8443 34.0395 41.1975C33.7398 41.0014 33.4522 40.713 33.3785 40.3128C33.3006 39.8934 33.4727 39.4651 33.6824 39.1293C35.5874 36.084 40.9006 34.7703 43.9638 34.1556C44.4774 34.9101 45.4465 35.1053 46.206 35.4227C49.9507 36.9871 53.5602 37.8766 57.5061 38.4447C61.5094 39.0224 65.5581 39.241 69.5494 39.8372C69.7506 39.8701 69.9603 39.9488 70.1204 40.0983Z" fill="#FEE685"/>
<path d="M42.1456 36.1769C42.4332 36.1211 42.9094 36.0515 43.1638 36.2008C42.9874 36.4705 42.7368 36.6054 42.4824 36.7641C41.6036 37.3042 40.6468 37.7094 39.7475 38.2075C38.5976 38.8461 37.4849 39.5819 36.3721 40.2945C36.1586 40.3736 35.9291 40.4758 35.7029 40.462C35.4811 40.4526 35.4402 40.4526 35.3008 40.2663C35.3129 40.0009 35.3909 39.8422 35.5303 39.6283C36.8488 37.5601 40.0229 36.5966 42.1456 36.1769Z" fill="#FFFBEB"/>
<path d="M74.9908 57.6328C78.2348 56.9762 84.1065 56.4499 86.7178 54.1446C86.9317 54.2517 86.9967 54.4193 87.0707 54.6755C87.2066 55.1273 87.026 55.6349 86.8243 56.0261C84.936 59.7007 79.4661 61.1118 76.0871 62.0758C73.8986 62.6999 71.6321 63.0724 69.3941 63.4031C59.679 64.8562 50.3657 64.1716 40.741 62.318C36.9716 61.5915 31.7776 60.4132 28.4803 58.1731C27.7289 57.6608 27.1253 57.1019 26.6367 56.273C29.0634 58.066 32.4428 58.8111 35.2761 59.2768C35.9166 59.384 36.8773 59.2955 37.44 59.5702C39.8131 59.696 42.1747 59.9754 44.5559 60.0453C49.8697 60.1431 55.1745 59.9382 60.4671 59.4305C65.3327 59.002 70.1414 58.1311 74.9908 57.6328Z" fill="#A1A1A1"/>
<path d="M37.4388 59.57C39.8124 59.6958 42.1735 59.9752 44.5545 60.0451C49.8681 60.1429 55.1736 59.938 60.4665 59.4303C65.3282 58.9972 70.1405 58.1263 74.9896 57.628C74.842 58.0518 74.4765 58.1775 74.1192 58.3545C67.7218 61.4655 43.9513 62.2666 37.455 59.8122L37.3398 59.6586L37.4388 59.57Z" fill="#D4D4D4"/>
<path d="M25.1992 70.8313C25.8644 71.1108 27.3262 72.3077 28.2132 72.778C30.2129 73.8306 32.2248 74.4221 34.3971 74.8226C37.9365 75.4699 41.5702 75.7261 45.1555 75.9124C55.5599 76.4479 66.0718 75.8099 76.4401 74.7061C80.9649 74.2218 87.2517 73.5977 91.4809 71.8559C91.329 73.104 91.0461 73.6676 90.2494 74.5431C89.6248 75.1812 88.9021 75.6702 88.1465 76.0707C86.5045 76.9416 84.6938 77.4819 82.9401 77.9709C69.7017 81.6454 44.1331 80.7466 31.3913 75.4606C29.252 74.5711 26.2176 73.3183 25.1992 70.8313Z" fill="#A1A1A1"/>
<path d="M38.7031 47.6521C40.5836 47.233 42.5501 46.8232 44.4719 46.8139C45.7904 46.8092 47.1163 47.0933 48.4307 47.2284C50.2496 47.4054 52.0725 47.4846 53.8954 47.4706C56.7985 47.4659 59.6934 47.261 62.5762 46.8511C63.9685 46.6555 65.3973 46.1949 66.7888 46.125C67.8892 46.0689 69.0269 46.2832 70.1151 46.4506C74.7016 47.1585 81.0048 48.6628 84.8395 51.5969C85.661 52.2256 86.2724 52.9101 86.823 53.837C83.9694 55.644 80.7866 56.2774 77.6046 56.9247C76.677 57.1157 75.5928 57.4044 74.6521 57.4184C74.6027 57.3299 74.554 57.2414 74.5046 57.153C73.3588 55.1596 69.8808 54.2655 67.9468 53.646C60.5846 51.2895 53.1526 50.1624 45.6218 48.8258C43.3715 48.4253 41.002 48.2296 38.7891 47.6755L38.7031 47.6521Z" fill="#A1A1A1"/>
<path d="M39.1409 62.9981C40.4796 62.672 45.8469 63.9714 47.5182 64.1949C50.0267 64.5117 52.5395 64.7259 55.0606 64.8423C58.3662 64.9541 61.6675 64.8703 64.9647 64.5955C66.8333 64.4372 73.9289 63.1657 75.0661 63.4544C79.7472 64.1577 87.6634 65.3639 90.7683 69.8907C91.1252 70.4077 91.3427 70.9713 91.5359 71.5814C88.5385 72.564 85.5042 73.1694 82.412 73.5979C81.7225 73.6957 80.9171 73.8867 80.2276 73.8308C79.3895 73.1741 76.4047 72.9086 75.271 72.6571L58.5425 68.9872C52.6176 67.7019 43.5844 66.0905 38.3281 63.1098L39.1409 62.9981Z" fill="#A1A1A1"/>
<path d="M39.1445 62.9982C40.4832 62.6721 45.8497 63.9715 47.5208 64.1951C50.0297 64.5118 52.543 64.726 55.0638 64.8424C58.3698 64.9542 61.6707 64.8703 64.9678 64.5956C66.8362 64.4372 73.9315 63.1658 75.0692 63.4546C73.8539 64.0181 72.4495 64.3301 71.1684 64.6468C62.4589 66.7938 53.2944 65.9136 44.5642 64.4279C43.3859 64.2277 42.2526 63.9017 41.103 63.5477C40.4869 63.3568 39.8877 63.068 39.2472 63.0075L39.1445 62.9982Z" fill="#737373"/>
<path d="M99.7311 85.5807C99.9487 85.8601 100.015 86.1117 99.9898 86.4842C99.9157 87.6532 99.4725 88.5334 98.6841 89.2786C92.3567 95.2491 70.2619 96.5904 62.0332 96.7348C58.4605 96.8186 54.8924 96.7859 51.3242 96.6369C47.7561 96.488 44.1915 96.2224 40.6356 95.8452C36.1764 95.3329 31.7745 94.4713 27.3768 93.5119C24.2234 92.8227 20.8686 92.18 17.8957 90.7735C16.9431 90.3217 15.97 89.721 15.3006 88.8081C15.0502 88.4635 14.8942 88.0956 14.7422 87.6858C14.7792 87.6904 17.6165 89.5114 18.2078 89.7582C20.8317 90.8527 23.4144 91.365 26.1779 91.7329C31.3681 92.4268 36.6198 92.5385 41.8428 92.5199C44.7257 92.5106 47.6205 92.5759 50.5029 92.4688C54.6373 92.315 58.7727 91.9471 62.8991 91.649C70.8737 91.0716 78.8189 90.4988 86.7436 89.2693C89.0222 88.9152 98.454 87.4901 99.7311 85.5807Z" fill="#737373"/>
<path d="M32.5273 77.9523C35.6399 77.3607 37.9311 78.2317 40.9409 78.8464C42.9981 79.2702 45.0592 79.6242 47.1371 79.9036C51.1941 80.4346 55.2635 80.7465 59.3489 80.8351C64.7318 80.9888 70.193 80.8677 75.5518 80.2064C77.2105 79.9874 78.8613 79.694 80.504 79.3401C81.8913 79.0374 83.6613 78.255 85.07 78.418C88.6588 78.8277 95.122 80.8723 98.0577 83.2615C98.5418 83.6527 99.5892 84.6307 99.6835 85.3293C99.6915 85.3758 99.6915 85.4224 99.696 85.469C96.0537 87.3598 91.9932 88.105 88.051 88.7384C86.9627 88.9153 85.8504 89.1389 84.754 89.2087C83.8134 88.5102 79.235 87.8256 77.8966 87.5741C74.1841 86.8569 70.4644 86.1908 66.7358 85.5808C62.2027 84.8682 57.6448 84.2814 53.1278 83.4245C49.5683 82.7492 46.0657 81.8317 42.5382 80.9888C39.2738 80.2064 35.5208 79.6475 32.5273 77.9523Z" fill="#737373"/>
<path d="M80.2285 73.8352C80.2039 73.8398 80.1792 73.8491 80.1545 73.8538C79.0829 74.1099 77.9041 74.1752 76.8123 74.2916C74.4016 74.557 71.9917 74.7712 69.5732 74.9296C61.2455 75.5164 52.9716 75.9169 44.6285 75.5304C40.9041 75.3581 37.0072 75.1066 33.3522 74.2822C30.8273 73.714 28.0351 72.5963 25.8999 70.9337C25.6125 70.7101 25.3127 70.3842 25.2716 69.9696C25.2224 69.4993 25.4852 69.0242 25.7274 68.6657C28.495 64.53 34.1288 63.7616 38.3332 63.1096C43.5853 66.0902 52.6188 67.7016 58.5481 68.987L75.2768 72.6569C76.4055 72.913 79.391 73.1785 80.2285 73.8352Z" fill="#D4D4D4"/>
<path d="M34.548 65.3498C35.6854 65.1917 36.5516 65.4525 37.5578 66.0346C35.0613 67.5202 32.2031 68.4283 29.5835 69.63C28.8856 69.9375 28.1176 70.4031 27.3581 70.2306C27.2432 70.1094 27.1735 70.0956 27.1649 69.9046C27.1486 69.5648 27.3866 69.2152 27.5718 68.9688C29.1237 66.859 32.2158 65.5783 34.548 65.3498Z" fill="#FAFAFA"/>
<path d="M74.6575 57.4185C63.0901 59.1836 49.2035 60.5156 37.5705 59.3001C34.7948 59.0113 32.1995 58.3127 29.5268 57.4651C28.7508 57.2183 27.5475 56.203 26.8043 56.2589C26.7633 56.2635 26.7222 56.2682 26.6811 56.2729C26.6113 56.1332 26.5826 55.9794 26.5744 55.8164C26.521 54.9642 27.0055 53.9817 27.4736 53.3529C29.5799 50.507 35.5053 47.9733 38.7036 47.6527L38.7942 47.6752C41.0074 48.2297 43.3767 48.4251 45.6267 48.826C53.1579 50.1629 60.5898 51.2944 67.9524 53.646C69.8858 54.2656 73.3603 55.1551 74.5096 57.1531C74.5589 57.2369 74.6082 57.3254 74.6575 57.4185Z" fill="#D4D4D4"/>
<path d="M38.3388 49.4079C38.7204 49.3984 39.1271 49.4215 39.4925 49.5706C39.7594 49.678 39.8458 49.7107 39.9688 49.9992C39.9358 50.0924 39.928 50.1298 39.8866 50.204C39.3323 51.224 31.5099 54.3581 30.0442 54.801C29.6501 54.8521 29.0507 55.0059 28.6974 54.731C28.5246 54.5962 28.533 54.5214 28.4922 54.3023C28.5576 54.0696 28.6524 53.8879 28.7879 53.7015C30.8325 50.9444 35.3043 49.7012 38.3388 49.4079Z" fill="#FAFAFA"/>
<path d="M14.6367 86.8987C14.7353 86.1955 15.1829 85.5387 15.5935 85.0218C19.2644 80.3832 27.2961 78.2782 32.5314 77.9522C35.525 79.652 39.2782 80.2062 42.5421 80.9886C46.0734 81.8316 49.5719 82.7538 53.1319 83.4244C57.645 84.2767 62.2067 84.8682 66.7398 85.5807C70.4682 86.1908 74.1886 86.8568 77.9003 87.574C79.2389 87.8255 83.8134 88.5101 84.7577 89.2087C83.546 89.5021 82.2242 89.5719 80.9926 89.7396C76.5865 90.2984 72.1724 90.713 67.7455 90.983C62.5061 91.3557 57.2666 91.84 52.0192 92.0822C46.8492 92.3197 41.5858 92.3151 36.4158 92.1474C30.8561 91.9704 18.5048 91.542 14.6367 86.8987Z" fill="#A1A1A1"/>
<path d="M27.9266 80.1921C28.5428 80.1082 29.7993 80.0201 30.3085 80.4859C30.448 80.6114 30.415 80.6625 30.4396 80.8487C29.9513 81.9342 26.2144 83.6152 25.1262 84.0719L24.4324 84.4163C23.0489 85.2639 20.0922 86.4655 18.5074 86.3724C18.1293 86.3491 17.9694 86.2746 17.7313 85.9719C17.7145 85.8089 17.7066 85.6878 17.7601 85.5292C18.1335 84.4443 19.6239 83.266 20.5359 82.7676L21.0902 82.4089C21.9686 81.7058 23.2703 81.1889 24.3217 80.9421C24.6746 80.7 25.1718 80.6209 25.5698 80.5091L26.9454 80.2432L27.9266 80.1921Z" fill="#D4D4D4"/>
<path d="M24.4272 84.4215C24.4228 84.3699 24.4146 84.3188 24.4146 84.2677C24.4025 83.9694 24.5996 83.6156 24.7721 83.4062C24.9319 83.2057 24.9527 83.1683 25.1867 83.1683C25.2729 83.4947 25.1828 83.7507 25.117 84.0765L24.4272 84.4215Z" fill="#D4D4D4"/>
<path d="M26.946 80.2432L27.9233 80.1922C27.7138 80.7603 26.3836 82.0692 25.8828 82.3669L25.8086 82.2879C26.0015 81.9993 26.8309 81.3145 26.8642 81.0116C26.9051 80.6251 26.7491 80.695 26.946 80.2432Z" fill="#D4D4D4"/>
<path d="M21.0888 82.4137L21.1666 82.7027C21.1419 82.7308 21.1214 82.7536 21.0966 82.7817C20.8751 83.0474 20.7685 83.2337 20.682 83.5966C21.1131 83.4196 21.3556 82.7957 21.762 82.6514C21.3923 83.4336 20.9122 83.7923 20.4481 84.4442C20.1237 84.3653 19.8404 84.356 19.5859 84.0996C19.6843 83.6386 20.2591 83.145 20.5342 82.7723L21.0888 82.4137Z" fill="#D4D4D4"/>
<path d="M25.5729 80.5139C25.8645 80.5647 26.1477 80.5278 26.3284 80.8071C26.2383 81.2077 25.499 82.0366 25.1828 82.2506L25.0883 82.2087C25.1745 81.8641 25.499 81.6266 25.6551 81.2915C25.3961 81.3009 25.2158 81.2775 25.0228 81.5199C24.846 81.7384 24.7066 82.083 24.5834 82.3394L24.4357 82.4417L24.3205 82.3254L24.5096 81.878L24.448 81.678L24.2628 81.6316C24.0658 81.8361 23.8895 82.0461 23.7171 82.2785L23.6265 82.2741L23.5526 81.9903C23.4335 82.0741 23.4255 82.111 23.2773 82.097C23.4379 81.678 24.0289 81.3054 24.3244 80.9468C24.6736 80.6999 25.1705 80.6206 25.5729 80.5139Z" fill="#D4D4D4"/>
<path d="M60.8434 6.86448C60.8252 6.82812 60.7974 6.79982 60.7655 6.77498C60.6955 6.69759 60.6255 6.62019 60.5555 6.54276C60.5316 6.56172 60.528 6.58239 60.5215 6.60236C60.2518 7.4267 59.8766 8.20172 59.3967 8.92808C59.3578 8.9871 59.3119 9.03338 59.2428 9.0547C59.0512 9.0491 58.9996 8.99788 59.0007 8.80982C59.0017 8.6349 58.9917 8.4606 58.9752 8.28653C58.9171 7.55436 58.7318 6.85293 58.4446 6.17653C57.9788 5.07948 57.2856 4.12867 56.4865 3.24666C55.8006 2.48955 55.0461 1.80164 54.2714 1.1343C54.1239 1.00725 53.9743 0.882687 53.8117 0.745165C53.8161 0.784737 53.8163 0.805256 53.8208 0.824858C53.8706 1.04355 53.9242 1.26144 53.9709 1.48074C54.2244 2.67134 54.3405 3.87381 54.2929 5.09053C54.2573 6.00281 54.128 6.90127 53.8896 7.78401C53.5596 9.006 53.0367 10.1418 52.3137 11.1883C52.2617 11.2636 52.1947 11.308 52.1018 11.2955C52.0128 11.2835 51.9609 11.2269 51.9333 11.1424C51.7129 10.4677 51.6654 9.78219 51.7989 9.0856C51.8277 8.93559 51.8655 8.78722 51.9015 8.62731C51.8811 8.63919 51.87 8.64379 51.8612 8.65114C51.7012 8.7848 51.5508 8.92842 51.4078 9.07923C50.7035 9.82247 50.2105 10.688 49.8867 11.6479C49.424 13.0194 49.3089 14.423 49.5085 15.8526C49.6379 16.779 49.9052 17.6638 50.3505 18.4928C50.9025 19.5205 51.6685 20.3485 52.7113 20.9151C53.0239 21.085 53.3453 21.2481 53.6928 21.323C54.5215 21.5016 55.3619 21.5657 56.2108 21.4973C57.1641 21.4205 58.0678 21.1772 58.9115 20.7314C59.2781 20.5376 59.6285 20.3179 59.9459 20.0513C60.2354 19.8399 60.4925 19.5933 60.7369 19.3344C61.5381 18.4854 62.113 17.5023 62.5131 16.4175C62.6353 16.0863 62.7463 15.7514 62.8177 15.4052C62.8231 15.3911 62.8303 15.3774 62.8338 15.3627C63.1508 14.0391 63.1988 12.7068 62.9699 11.365C62.7415 10.026 62.2557 8.78698 61.4779 7.66205C61.2847 7.38256 61.0813 7.11006 60.8434 6.86448ZM53.3788 0.000703812C53.4189 0.000459671 53.4589 0.00021553 53.499 1.90735e-06C53.5387 0.00444221 53.5669 0.0289154 53.5958 0.0528355C54.459 0.769115 55.3129 1.49587 56.1069 2.28698C56.9464 3.12329 57.7122 4.01722 58.3109 5.04015C58.8089 5.89123 59.1591 6.79471 59.3143 7.76732C59.3364 7.90588 59.3509 8.04561 59.3876 8.19045C59.4704 8.03501 59.5573 7.88147 59.6353 7.72373C59.8867 7.21521 60.0922 6.68925 60.2462 6.14413C60.2981 5.96054 60.4631 5.91264 60.604 6.04437C61.2243 6.62457 61.7458 7.28201 62.1762 8.00895C62.8005 9.06337 63.1997 10.196 63.3826 11.4017C63.6962 13.4686 63.4462 15.4628 62.5498 17.3646C61.9243 18.6917 61.026 19.806 59.798 20.6488C58.8783 21.28 57.8622 21.6719 56.7514 21.8303C55.7976 21.9663 54.8492 21.9258 53.9035 21.7617C53.0228 21.6089 52.2794 21.1784 51.6001 20.634C50.6943 19.908 50.0806 18.9721 49.6463 17.9169C49.2487 16.951 49.0474 15.9429 49.0012 14.9036C49.0014 14.8606 49.0016 14.8175 49.0018 14.7745C49.0012 14.6013 49.0006 14.4281 49 14.2549C49.0004 14.2059 49.0009 14.1568 49.0013 14.1078C49.0558 12.9141 49.3124 11.7671 49.8313 10.6826C50.3748 9.54699 51.1486 8.5999 52.2164 7.89679C52.3357 7.81822 52.4057 7.81311 52.4801 7.87565C52.5677 7.94919 52.5809 8.0454 52.5203 8.1676C52.1367 8.94235 52.0298 9.75245 52.1987 10.5978C52.1997 10.6029 52.203 10.6077 52.2059 10.6139C52.2399 10.6025 52.247 10.5695 52.2625 10.5448C53.0396 9.30056 53.5527 7.95887 53.7908 6.5177C53.9503 5.55146 53.9716 4.57962 53.8948 3.60437C53.8054 2.47001 53.5792 1.36135 53.2578 0.270023C53.2137 0.120342 53.2472 0.0472298 53.3788 0.000703812Z" fill="black"/>
<path d="M59.9534 20.0511C59.6358 20.3178 59.2854 20.5375 58.9188 20.7313C58.0751 21.1772 57.1714 21.4204 56.2181 21.4972C55.3692 21.5656 54.5288 21.5015 53.7001 21.3229C53.3526 21.248 53.0312 21.0849 52.7186 20.915C51.6759 20.3484 50.9098 19.5204 50.3578 18.4927C49.9125 17.6638 49.6452 16.779 49.5158 15.8525C49.3162 14.4229 49.4313 13.0193 49.894 11.6478C50.2178 10.6879 50.7108 9.82238 51.4151 9.07915C51.5581 8.92833 51.7086 8.78471 51.8685 8.65105C51.8773 8.6437 51.8885 8.6391 51.9088 8.62722C51.8728 8.78713 51.835 8.9355 51.8063 9.08552C51.6727 9.7821 51.7202 10.4676 51.9406 11.1423C51.9682 11.2268 52.0201 11.2834 52.1091 11.2954C52.2021 11.308 52.269 11.2635 52.321 11.1882C53.044 10.1417 53.5669 9.00591 53.8969 7.78392C54.1353 6.90118 54.2646 6.00272 54.3002 5.09045C54.3478 3.87373 54.2317 2.67125 53.9782 1.48065C53.9315 1.26135 53.8779 1.04346 53.8281 0.824772C53.8236 0.80517 53.8234 0.784651 53.819 0.745077C53.9816 0.882601 54.1312 1.00717 54.2787 1.13421C55.0534 1.80155 55.8079 2.48947 56.4938 3.24657C57.2929 4.12859 57.9861 5.07939 58.4519 6.17644C58.7391 6.85285 58.9245 7.55427 58.9825 8.28651C58.7466 7.6524 58.4816 7.03006 58.1765 6.42512C57.7987 5.676 57.3686 4.95654 56.8799 4.2715C56.5895 3.86442 56.2825 3.47004 55.9583 3.08826C55.7001 2.78421 55.431 2.48999 55.1551 2.20156C55.1442 2.18202 55.1354 2.16006 55.1058 2.15868C55.1041 2.18609 55.1179 2.20385 55.136 2.21954C55.2933 2.49578 55.4487 2.77296 55.608 3.04801C56.1451 3.97492 56.67 4.90808 57.1303 5.875C57.3954 6.43192 57.6359 6.99876 57.8344 7.58168C58.0945 8.34553 58.2847 9.12469 58.3547 9.93044C58.3962 10.4092 58.4011 10.8861 58.3546 11.3644C58.3476 11.4361 58.3205 11.5097 58.3406 11.605C58.78 10.9168 59.2081 10.2465 59.6371 9.57475C59.6731 9.60063 59.6733 9.63726 59.6818 9.66823C59.8136 10.1479 59.9174 10.6328 59.9904 11.125C60.0608 11.5993 60.0926 12.0759 60.1124 12.5534C60.1229 12.8077 60.1144 13.0629 60.1038 13.3181C60.0847 13.7812 60.0466 14.2418 59.9881 14.7016C59.9115 15.3043 59.7968 15.8999 59.6548 16.4905C59.4924 17.1657 59.2923 17.8303 59.0622 18.4864C58.8504 19.0905 58.6177 19.6866 58.3619 20.2741C58.2987 20.4191 58.2362 20.5644 58.1735 20.7091C58.2011 20.7222 58.2185 20.7143 58.2365 20.7094C58.7955 20.5572 59.3366 20.3599 59.8502 20.0929C59.883 20.0758 59.9141 20.0532 59.9534 20.0511Z" fill="#FF8904"/>
<path d="M55.1518 2.20162C55.4277 2.49005 55.6968 2.78427 55.955 3.08832C56.2792 3.4701 56.5862 3.86448 56.8767 4.27156C57.3654 4.9566 57.7954 5.67606 58.1733 6.42518C58.4783 7.03012 58.7433 7.65246 58.9792 8.28657C58.9958 8.46057 59.0058 8.63488 59.0047 8.8098C59.0037 8.99786 59.0553 9.04907 59.2469 9.05467C59.2666 9.09771 59.2631 9.14984 59.299 9.19256C59.4086 9.09734 59.4929 8.98714 59.5817 8.88082C59.999 8.38133 60.3267 7.82919 60.582 7.23482C60.6473 7.08271 60.7072 6.92831 60.7695 6.77496C60.8015 6.7998 60.8292 6.8281 60.8474 6.86448C60.8493 6.87655 60.849 6.88945 60.8534 6.9005C61.0264 7.33509 61.2037 7.76806 61.3724 8.20427C61.6431 8.90469 61.8869 9.61444 62.1021 10.3332C62.3214 11.0656 62.5098 11.8058 62.6408 12.5591C62.699 12.8942 62.752 13.2301 62.7821 13.569C62.7983 13.7521 62.8217 13.9347 62.8322 14.1181C62.8445 14.3325 62.861 14.5484 62.8486 14.7621C62.836 14.9765 62.8527 15.1918 62.8218 15.4052C62.7504 15.7514 62.6393 16.0863 62.5172 16.4175C62.1171 17.5023 61.5422 18.4853 60.741 19.3343C60.4965 19.5933 60.2395 19.8398 59.9501 20.0512C59.9108 20.0533 59.8797 20.0759 59.8469 20.0929C59.3333 20.36 58.7922 20.5573 58.2332 20.7095C58.2152 20.7144 58.1979 20.7223 58.1703 20.7092C58.2329 20.5644 58.2954 20.4192 58.3586 20.2742C58.6144 19.6867 58.8471 19.0906 59.059 18.4865C59.2891 17.8304 59.4891 17.1658 59.6515 16.4906C59.7936 15.8999 59.9082 15.3044 59.9849 14.7017C60.0433 14.2419 60.0814 13.7813 60.1006 13.3181C60.1111 13.0629 60.1197 12.8077 60.1091 12.5535C60.0893 12.076 60.0575 11.5993 59.9871 11.1251C59.9141 10.6328 59.8103 10.1479 59.6786 9.66829C59.6701 9.63732 59.6699 9.60069 59.6339 9.57481C59.2048 10.2466 58.7768 10.9169 58.3373 11.605C58.3173 11.5097 58.3444 11.4362 58.3513 11.3644C58.3978 10.8861 58.393 10.4092 58.3514 9.9305C58.2815 9.12475 58.0912 8.34559 57.8312 7.58175C57.6327 6.99882 57.3922 6.43198 57.1271 5.87506C56.6667 4.90814 56.1418 3.97498 55.6048 3.04807C55.4454 2.77303 55.29 2.49584 55.1328 2.2196C55.1391 2.21362 55.1455 2.20762 55.1518 2.20162Z" fill="#FFD230"/>
<path d="M62.822 15.4051C62.8529 15.1918 62.8362 14.9764 62.8488 14.762C62.8612 14.5483 62.8448 14.3324 62.8324 14.118C62.8219 13.9346 62.7985 13.752 62.7823 13.569C62.7523 13.23 62.6992 12.8942 62.641 12.5591C62.5101 11.8057 62.3216 11.0655 62.1023 10.3331C61.8871 9.61436 61.6433 8.9046 61.3726 8.20419C61.204 7.76798 61.0266 7.33501 60.8536 6.90042C60.8492 6.88936 60.8496 6.87647 60.8477 6.8644C61.0855 7.10995 61.289 7.38245 61.4822 7.66194C62.26 8.78687 62.7458 10.0259 62.9742 11.3649C63.203 12.7067 63.155 14.039 62.8381 15.3626C62.8346 15.3772 62.8274 15.391 62.822 15.4051Z" fill="#FF8904"/>
<path d="M60.7687 6.77496C60.7064 6.92832 60.6465 7.08272 60.5812 7.23482C60.3259 7.8292 59.9982 8.38134 59.5809 8.88083C59.4921 8.98714 59.4078 9.09734 59.2982 9.19257C59.2623 9.14984 59.2658 9.09771 59.2461 9.05468C59.3152 9.03336 59.361 8.98708 59.4 8.92806C59.8799 8.2017 60.2551 7.42668 60.5248 6.60234C60.5313 6.58237 60.5348 6.56169 60.5588 6.54273C60.6288 6.62016 60.6988 6.69756 60.7687 6.77496Z" fill="#FF8904"/>
<path d="M55.151 2.20169C55.1446 2.20769 55.1383 2.21369 55.132 2.21967C55.1138 2.20398 55.1 2.18622 55.1017 2.15881C55.1313 2.16019 55.1401 2.18215 55.151 2.20169Z" fill="#FD9A00"/>
</svg>
