<svg width="107" height="94" viewBox="0 0 107 94" fill="none" xmlns="http://www.w3.org/2000/svg">
<path d="M84 84.5C84 89.7467 65.196 94 42 94C18.804 94 0 89.7467 0 84.5C0 79.2533 18.804 75 42 75C65.196 75 84 79.2533 84 84.5Z" fill="#C6005C" fill-opacity="0.3"/>
<path d="M32.4881 31.8041C23.6418 32.8596 17.117 26.152 16.4368 21.1664C15.404 13.5992 23.5955 10.1514 28.0459 15.57C29.1178 8.64043 37.9233 7.43742 40.8868 14.4754C42.8398 19.1132 40.6393 28.2081 32.4881 31.8041Z" fill="#FB2C36"/>
<path d="M30.647 31.3218C26.6038 31.3218 23.1461 29.6516 20.7188 27.4136C22.7371 28.566 25.1749 29.3118 27.9036 29.3118C28.5263 29.3118 29.1637 29.2724 29.8153 29.1914C37.5909 25.8151 39.771 17.4585 37.9618 13.2266C37.4969 12.1376 36.8687 11.2659 36.1415 10.6024C37.7451 11.0949 39.3426 12.3353 40.3409 14.7055C42.2147 19.1554 40.0197 27.7801 32.3305 31.2261C31.759 31.2908 31.1976 31.3218 30.647 31.3218Z" fill="#E7000B"/>
<path d="M20.0628 26.7666C18.3562 24.9792 17.278 22.9202 17.0277 21.0855C16.4995 17.2158 18.4867 14.8875 20.5226 13.9982C21.2559 13.6787 22.0186 13.5231 22.7775 13.5231C23.3826 13.5231 23.9849 13.6218 24.5675 13.8151C24.2799 13.7726 23.9926 13.7514 23.7081 13.7514C20.2313 13.7514 17.1177 16.8662 17.7982 21.8486C18.0122 23.416 18.8035 25.154 20.0628 26.7666Z" fill="#FFA2A2"/>
<path d="M28.9307 16.4409C28.7904 16.2696 28.647 16.1067 28.5 15.953C28.5695 15.8712 28.6168 15.771 28.6342 15.6603C29.0792 12.782 31.078 10.7117 33.7265 10.3852C33.9513 10.3577 34.1835 10.3429 34.4206 10.3429C34.8768 10.3429 35.3514 10.3972 35.8291 10.515C35.7821 10.5143 35.735 10.5135 35.688 10.5135C32.5636 10.5135 29.5172 12.6487 28.9307 16.4409Z" fill="#FFA2A2"/>
<path d="M22.7738 13.5238C22.0149 13.5238 21.2523 13.6789 20.5189 13.9991C18.483 14.888 16.4958 17.2168 17.024 21.0864C17.6767 25.8705 23.9569 32.1754 32.3298 31.2264C40.019 27.7806 42.214 19.1562 40.3401 14.7065C38.8245 11.1071 35.9276 10.1138 33.724 10.3861C31.0754 10.7119 29.0766 12.7828 28.6317 15.6612C28.5958 15.892 28.4277 16.0807 28.2021 16.1421C27.9769 16.2036 27.7359 16.1271 27.5875 15.9463C26.2931 14.3706 24.5449 13.5238 22.7738 13.5238ZM30.6636 32.5062C27.1954 32.5062 23.8351 31.3693 21.0388 29.2205C18.2125 27.0496 16.224 23.994 15.8492 21.2464C15.3403 17.5184 16.9871 14.247 20.0445 12.9122C22.6536 11.7731 25.5574 12.3469 27.7117 14.3506C28.5456 11.5287 30.7535 9.55716 33.579 9.20915C36.8892 8.80184 39.9727 10.7784 41.4329 14.2463C42.509 16.8017 42.3532 20.4439 41.0265 23.7518C39.4757 27.6177 36.5283 30.6704 32.7273 32.3469C32.6733 32.3712 32.6166 32.3862 32.558 32.3933C31.9249 32.4691 31.2925 32.5062 30.6636 32.5062Z" fill="#1D293D"/>
<path d="M21.9249 24.8447C20.9215 24.8447 19.873 23.7956 19.4639 22.3003C19.0042 20.6206 19.5259 19.0135 20.6292 18.712C20.7504 18.6786 20.8739 18.6629 20.998 18.6629C22.0014 18.6629 23.0498 19.7121 23.459 21.2073C23.9187 22.887 23.397 24.4935 22.2937 24.7957C22.1724 24.8284 22.049 24.8447 21.9249 24.8447Z" fill="#FF6467"/>
<path d="M25.0652 27.4659C24.8501 27.4659 24.6237 27.4259 24.4009 27.341C23.6108 27.0407 23.1625 26.2929 23.3991 25.6707C23.5692 25.2245 24.0461 24.9642 24.5941 24.9642C24.8092 24.9642 25.0355 25.0042 25.2584 25.0891C26.0484 25.3901 26.4965 26.1378 26.2597 26.76C26.0901 27.2062 25.6131 27.4659 25.0652 27.4659Z" fill="#FF6467"/>
<path d="M29.0381 48.375C25.6411 52.6705 19.8898 52.5762 17.4318 50.6986C13.7012 47.8495 15.7758 42.7953 20.0639 43.2271C17.5268 39.7433 20.842 35.401 25.1846 37.1831C28.0463 38.3571 31.0307 43.274 29.0381 48.375Z" fill="#FB2C36"/>
<path d="M22.5446 51.401C24.0573 50.8875 25.5464 49.9262 26.7429 48.3948C28.6673 43.5525 25.994 38.9662 23.3709 37.9067C22.8086 37.6788 22.2624 37.5664 21.7461 37.5502C22.1696 37.3683 22.655 37.2581 23.1945 37.2581C23.7431 37.2581 24.348 37.372 24.9997 37.6393C27.6941 38.7448 30.4213 43.3694 28.6072 48.1258C26.9341 50.207 24.6615 51.1909 22.5446 51.401Z" fill="#E7000B"/>
<path d="M20.2151 51.319C19.2305 51.1435 18.3676 50.7901 17.7338 50.3063C15.8835 48.8927 15.7417 47.0795 16.226 45.8537C16.4441 45.3015 16.7899 44.8386 17.228 44.4851C15.8742 46.0188 15.954 48.5992 18.3216 50.4075C18.8291 50.7946 19.4768 51.1064 20.2151 51.319Z" fill="#FFA2A2"/>
<path d="M20.8304 43.224C20.7396 43.2144 20.6501 43.2074 20.5616 43.2031C20.557 43.1085 20.5254 43.0154 20.4674 42.9363C19.4486 41.5373 19.4208 39.8298 20.3966 38.5859C20.5274 38.4195 20.6793 38.2591 20.8513 38.111C19.7846 39.4811 19.5707 41.4945 20.8304 43.224Z" fill="#FFA2A2"/>
<path d="M19.5736 43.6961C18.0435 43.6961 16.7572 44.5111 16.227 45.8535C15.7427 47.0789 15.8845 48.8927 17.7348 50.3059C20.0492 52.0736 25.4181 52.0933 28.608 48.126C30.4222 43.3696 27.6949 38.7454 25.0005 37.6395C22.8468 36.7565 21.2094 37.549 20.3957 38.5857C19.4199 39.8292 19.4476 41.5371 20.4665 42.936C20.5812 43.0935 20.5926 43.3037 20.4956 43.4727C20.3989 43.6418 20.2126 43.7373 20.0177 43.7186C19.8679 43.7032 19.7196 43.6961 19.5736 43.6961ZM21.6654 52.4073C19.8526 52.4073 18.2081 51.9106 17.1352 51.0912C15.2499 49.6512 14.5327 47.4527 15.308 45.4901C15.9465 43.8745 17.4164 42.8499 19.1856 42.7214C18.4033 41.1288 18.5457 39.343 19.6183 37.9759C20.9211 36.3158 23.1809 35.8252 25.3756 36.7258C28.4495 37.9869 31.5851 43.2219 29.5018 48.5541C29.484 48.6002 29.4593 48.6425 29.4289 48.6814C27.3205 51.3464 24.3134 52.4073 21.6654 52.4073Z" fill="#1D293D"/>
<path d="M20.5077 50.2419C20.1148 50.2419 19.6692 50.1228 19.2459 49.8798C18.3173 49.3474 17.848 48.4214 18.1979 47.8115C18.3882 47.4795 18.782 47.3097 19.2509 47.3097C19.6438 47.3097 20.0894 47.4288 20.5127 47.6718C21.4413 48.2042 21.9106 49.1303 21.5607 49.7402C21.3704 50.0721 20.9766 50.2419 20.5077 50.2419Z" fill="#FF6467"/>
<path d="M23.1219 50.0376C22.8094 50.0376 22.5352 49.8953 22.4227 49.6423C22.2562 49.2687 22.5059 48.7947 22.9805 48.5832C23.1341 48.5149 23.2923 48.4824 23.4419 48.4824C23.7547 48.4824 24.0288 48.6242 24.1414 48.8767C24.3076 49.2503 24.0581 49.7253 23.5834 49.9363C23.4296 50.0051 23.2715 50.0376 23.1219 50.0376Z" fill="#FF6467"/>
<path d="M101.449 14.4295C101.368 15.2153 101.126 16.37 100.508 17.9286L79.101 71.2183C77.8083 74.1607 76.1506 76.2593 74.22 77.7334V77.7358C71.5523 79.7731 68.3649 80.6168 64.9069 80.8362L31.6409 84.3932C29.9751 84.4703 28.4398 84.2528 27.1095 83.5788C25.8965 82.9642 24.9753 81.8892 24.4737 80.6226L22.5507 75.7712C22.5507 75.7712 21.62 73.73 22.9914 71.8329L94.3034 1.04484C94.3034 1.04484 95.311 1.09438 96.4253 1.56464C96.7873 1.71709 97.1173 1.9221 97.4077 2.17134C97.961 2.63931 98.3757 3.26202 98.5952 3.9716L101.255 12.5537C101.443 13.1604 101.516 13.7984 101.449 14.4295Z" fill="#CAD5E2"/>
<path d="M74.7539 76.538C77.6552 70.0228 80.4541 63.5782 82.9771 57.3237C83.0503 57.9164 83.1662 58.5171 83.3247 59.1163L78.559 70.9798C77.5475 73.2821 76.2991 75.1217 74.7539 76.538ZM86.14 49.1707C88.4799 42.8546 90.4392 36.8001 91.8222 31.1425L92.4053 32.1839L97.8849 17.7149L96.6395 16.0351L93.1245 24.9595C93.7053 21.5977 94.0313 18.4161 94.0492 15.4423C94.0492 15.4423 93.8242 13.7132 96.2702 8.92278C97.633 6.25474 97.8154 4.47778 97.71 3.42746C97.8431 3.65023 97.9515 3.89169 98.03 4.14587L100.69 12.7279C100.859 13.2766 100.917 13.8283 100.861 14.368C100.792 15.0274 100.58 16.142 99.9594 17.7081L87.6277 48.4067C87.1036 48.5921 86.605 48.8485 86.14 49.1707Z" fill="#90A1B9"/>
<path d="M57.6574 6.5008L89.8682 0.769913C93.9191 0.128029 96.6855 1.16534 95.401 5.21627L72.4121 65.0268C70.4711 70.1107 65.5649 71.7975 59.8309 72.536L29.2013 75.6978C29.2013 75.6978 20.6381 76.8506 23.5364 69.9835L51.0042 12.3968C51.0042 12.3968 52.717 7.83525 57.6574 6.5008Z" fill="#CAD5E2"/>
<path d="M23.7307 73.5071C23.5394 73.0791 23.4858 72.5605 23.5695 71.954C23.5745 71.93 23.5779 71.9061 23.5799 71.8822C23.6562 71.3868 23.8224 70.8342 24.078 70.2262L51.5402 12.6518C51.5471 12.6366 51.554 12.6206 51.5598 12.6053C51.576 12.5627 53.2336 8.3238 57.7877 7.07984L89.9616 1.35563C90.668 1.24371 91.3151 1.18814 91.893 1.18814C92.7738 1.18814 93.494 1.3168 94.0246 1.56955C94.0368 1.57564 94.049 1.58173 94.0611 1.58707C94.0764 1.59544 94.0916 1.60305 94.1068 1.61066C93.679 1.52464 93.2039 1.48277 92.6908 1.48277C92.065 1.48277 91.3829 1.54443 90.6589 1.65939L58.4486 7.39045C53.5081 8.72424 51.795 13.2844 51.795 13.2844L24.3268 70.8724C23.881 71.9293 23.7064 72.7965 23.7307 73.5071Z" fill="#E2E8F0"/>
<path d="M24.0806 70.2263C23.3927 71.862 23.3533 73.0966 23.9641 73.8963C25.0437 75.3118 28.0562 75.2528 29.1259 75.1101L59.7732 71.9464C66.6733 71.0573 70.2925 68.9242 71.8615 64.8155L94.844 5.02064C95.2707 3.66814 95.2191 2.67148 94.6915 2.05915C93.9829 1.23425 92.3031 0.984695 89.9639 1.35593L57.7902 7.08021C53.2361 8.32333 51.5785 12.5626 51.5623 12.6057C51.5565 12.6211 51.5496 12.6373 51.5427 12.6519L24.0806 70.2263ZM27.9105 76.3647C26.4411 76.3647 24.158 76.103 23.0229 74.6177C22.1325 73.4529 22.1227 71.8161 22.9934 69.7529C22.9969 69.7443 23.0007 69.7363 23.0046 69.7282L50.4626 12.1621C50.6277 11.7385 52.4723 7.28739 57.506 5.92873C57.5226 5.92411 57.5396 5.92026 57.5565 5.91718L89.7675 0.18676C92.6189 -0.265358 94.5744 0.10511 95.5903 1.28585C96.406 2.23322 96.5339 3.61652 95.9693 5.39573C95.9654 5.40651 95.9616 5.41808 95.9577 5.42886L72.9691 65.2396C70.7616 71.0211 64.8302 72.4901 59.9101 73.124L29.2654 76.2873C29.2088 76.295 28.6674 76.3647 27.9105 76.3647Z" fill="#1D293D"/>
<path d="M29.115 72.9192C28.0503 72.9192 27.6602 72.4997 27.6933 71.7883C27.8475 71.8172 28.0245 71.8323 28.2255 71.8323C28.3619 71.8323 28.5096 71.8253 28.6685 71.8114L48.2559 69.6236L61.4129 68.1554C61.4483 68.1496 61.4814 68.1457 61.5153 68.1395C64.4263 67.6911 66.5501 66.1677 67.6709 63.6441L68.0207 62.7646L71.7513 53.3507L90.001 7.32476C90.3633 6.5125 90.5643 5.79451 90.5415 5.24589C91.6984 5.47712 91.6328 6.74448 90.8898 8.41171L68.5598 64.731C67.4264 67.284 65.2658 68.8136 62.3018 69.2423L29.5576 72.898C29.3987 72.9123 29.2511 72.9192 29.115 72.9192Z" fill="#E2E8F0"/>
<path d="M89.9997 7.32507L71.7501 53.3506L68.0192 62.7645L67.6694 63.644C66.5491 66.1676 64.4248 67.691 61.5144 68.1395C61.4801 68.1456 61.4465 68.1495 61.4114 68.1552L48.2546 69.6236L28.6672 71.8113C26.1617 72.0326 26.533 70.4773 27.7226 68.195L38.2453 45.4502L45.569 29.6233L50.1751 19.6635L53.1194 13.3003C53.345 12.8125 53.6253 12.3501 53.9792 11.9451C54.1235 11.7787 54.2715 11.6266 54.4219 11.4908C55.5918 10.4175 56.8167 10.2064 56.8167 10.2064L59.9689 9.6097V10.8046C59.9689 11.7847 60.8483 12.5321 61.815 12.374L74.8172 10.24C75.7227 10.0915 76.5283 9.5836 77.0541 8.83249L79.0359 5.99515L88.3513 4.22815C90.7903 3.70081 90.9544 5.18288 89.9997 7.32507Z" fill="#00BCFF"/>
<path d="M48.2553 69.6236L38.2461 45.45L45.5698 29.6232L61.5152 68.1395C61.4811 68.1457 61.4477 68.1495 61.4119 68.1553L48.2553 69.6236Z" fill="#74D4FF"/>
<path d="M68.0241 62.7645L50.1797 19.6639L53.124 13.3007C53.3496 12.812 53.6299 12.3499 53.9839 11.945C54.128 11.7789 54.2761 11.6267 54.4265 11.4906L71.7547 53.3504L68.0241 62.7645Z" fill="#74D4FF"/>
<path d="M59.4754 10.206L56.9098 10.6916C56.8898 10.6954 55.4909 10.9613 54.353 12.2696C54.0538 12.6118 53.7905 13.0287 53.5691 13.5076L28.1718 68.4027C28.1688 68.4097 28.1653 68.4165 28.1618 68.4235C27.4115 69.8625 27.1443 70.7613 27.3672 71.0948C27.5021 71.2964 27.9602 71.3778 28.6245 71.3192L61.3575 67.6647C64.1758 67.2567 66.152 65.839 67.2152 63.4526L89.5416 7.14339C89.5438 7.13667 89.5468 7.13069 89.5491 7.12396C90.0444 6.01369 90.1819 5.15597 89.9167 4.83096C89.7231 4.59187 89.2046 4.54929 88.4567 4.71142L79.3265 6.44331L77.4594 9.11588C76.8617 9.97211 75.9277 10.5594 74.8981 10.7282L61.8955 12.8614C61.291 12.9592 60.6769 12.7896 60.2099 12.3929C59.7429 11.9969 59.4754 11.4179 59.4754 10.8052V10.206ZM28.2343 72.3252C27.4034 72.3256 26.8509 72.1004 26.5459 71.6442C25.9984 70.8249 26.4426 69.5857 27.28 67.977L52.6723 13.0937C52.9329 12.5289 53.2475 12.0328 53.6081 11.6203C54.9853 10.0364 56.663 9.73153 56.734 9.71958L59.8512 9.12933C60.0657 9.07628 60.2883 9.17191 60.3982 9.36393C60.443 9.44238 60.4654 9.53129 60.4632 9.61945V10.8052C60.4632 11.1272 60.6044 11.4313 60.8494 11.6405C61.0945 11.8482 61.418 11.9379 61.7363 11.8863L74.7375 9.7532C75.5063 9.62693 76.2034 9.18835 76.6495 8.55028L78.6324 5.71185C78.7146 5.5938 78.8394 5.52282 78.9716 5.50488L88.2602 3.7431C89.4108 3.4943 90.2305 3.64971 90.684 4.20783C91.2242 4.8728 91.1502 5.95542 90.4561 7.51698L68.1297 63.8263C68.1275 63.8325 68.1245 63.8386 68.1222 63.8448C66.9298 66.5292 64.6338 68.1891 61.483 68.6444L28.7229 72.3024C28.5505 72.3179 28.3878 72.3252 28.2343 72.3252Z" fill="#1D293D"/>
<path d="M66.1226 8.90271C65.8903 8.90271 65.6827 8.73736 65.6375 8.50063C65.5872 8.23258 65.7628 7.97399 66.0308 7.923L73.0017 6.60095C73.269 6.54996 73.5283 6.72623 73.5793 6.99429C73.6296 7.26234 73.454 7.52092 73.186 7.57191L66.2151 8.89397C66.1838 8.89979 66.1532 8.90271 66.1226 8.90271Z" fill="#1D293D"/>
<path d="M40.0641 66.9701C39.8157 66.9701 39.6014 66.7831 39.5733 66.5308C39.5435 66.2599 39.7386 66.0153 40.01 65.9846L53.5789 64.4696C53.8511 64.4385 54.0944 64.6349 54.1246 64.9059C54.1549 65.1773 53.9597 65.4214 53.6888 65.4521L40.1195 66.9667C40.1003 66.9688 40.082 66.9701 40.0641 66.9701Z" fill="white"/>
<path d="M31.0056 84.9999C29.3885 84.9999 28.0205 84.7065 26.8391 84.1085C25.5277 83.4441 24.4909 82.2839 23.9194 80.8418L22.0013 75.9993C21.9001 75.7676 21.0043 73.5659 22.5077 71.4846C22.6994 71.2193 23.07 71.1595 23.3353 71.3515C23.601 71.5432 23.6607 71.9137 23.4687 72.179C22.3128 73.7795 23.0796 75.5069 23.0875 75.5239C23.0916 75.5332 23.0956 75.5424 23.0993 75.5516L25.0219 80.405C25.4864 81.5779 26.322 82.5175 27.375 83.0508C28.5221 83.6315 29.9021 83.8778 31.5932 83.8008L64.8397 80.2457C64.8481 80.245 64.8565 80.2442 64.8657 80.2434C71.7098 79.81 75.9314 76.9532 78.5553 70.9799L99.956 17.7084C100.576 16.1421 100.789 15.0278 100.857 14.3683C100.913 13.8284 100.856 13.2769 100.686 12.7278L98.0267 4.14591C97.7402 3.22301 97.0716 2.48086 96.1916 2.11016C95.1967 1.69045 94.2792 1.6376 94.27 1.63684C93.9437 1.61999 93.6917 1.3412 93.7086 1.01493C93.7254 0.68866 94.005 0.438972 94.3289 0.452759C94.3749 0.455063 95.4556 0.513268 96.6527 1.01799C97.8551 1.52502 98.7688 2.53677 99.1587 3.79514L101.818 12.377C102.036 13.0793 102.11 13.7908 102.036 14.4909C101.925 15.5578 101.596 16.7878 101.057 18.1472L79.6483 71.4391C76.8566 77.7961 72.1892 80.9645 64.953 81.426L31.7012 84.9818C31.6897 84.983 31.6777 84.9841 31.6658 84.9845C31.4414 84.9949 31.2212 84.9999 31.0056 84.9999Z" fill="#1D293D"/>
<path d="M28.4791 78.2274C25.2013 78.2278 22.0148 77.2349 21.7521 74.3952C21.727 74.1237 21.9269 73.8831 22.1986 73.8576C22.469 73.8345 22.7109 74.0323 22.736 74.3041C23.0331 77.5152 28.5346 77.2778 29.6347 77.1976L62.3811 73.757C66.0647 73.3387 71.1626 71.3675 73.4108 67.1921L96.7845 6.19234C96.7875 6.18394 96.7906 6.17632 96.7936 6.16869C97.4081 4.78274 97.5476 3.64836 97.1977 2.8883C96.892 2.22581 96.3111 2.04666 96.2867 2.03903C96.0275 1.96204 95.8757 1.68988 95.9505 1.42915C96.0244 1.16919 96.2912 1.01672 96.5527 1.08762C96.5939 1.09905 97.5743 1.37807 98.0812 2.44689C98.5752 3.4875 98.4479 4.87041 97.7023 6.5575L74.3225 67.5746C74.3149 67.5939 74.3065 67.6124 74.2974 67.631C71.8754 72.1622 66.4223 74.2922 62.4886 74.739L29.7222 78.1815C29.3104 78.2116 28.8936 78.2274 28.4791 78.2274Z" fill="#1D293D"/>
<path d="M41.6211 80.8167C41.1653 80.8167 40.7635 80.497 40.6691 80.0412C40.553 79.4829 40.9397 78.945 41.5058 78.8772L46.3162 78.2988C46.3567 78.2938 46.3972 78.2915 46.4369 78.2915C46.922 78.2915 47.3457 78.6428 47.4259 79.1328C47.5185 79.7008 47.1156 80.2298 46.5434 80.2915L41.7263 80.8109C41.6908 80.8147 41.6558 80.8167 41.6211 80.8167Z" fill="#E2E8F0"/>
<path d="M51.2904 79.6488C50.9331 79.6488 50.6001 79.3291 50.5183 78.8842C50.4287 78.3938 50.6769 77.9382 51.0723 77.8655C51.1086 77.8588 51.1446 77.8555 51.1805 77.8555C51.5374 77.8555 51.8704 78.1757 51.9522 78.6206C52.0418 79.1105 51.794 79.5666 51.3978 79.6389C51.3619 79.6459 51.3259 79.6488 51.2904 79.6488Z" fill="#E2E8F0"/>
<path d="M54.7235 79.188C54.3666 79.188 54.0336 78.868 53.952 78.423C53.8621 77.9333 54.11 77.477 54.506 77.4045C54.542 77.3979 54.5781 77.3945 54.6141 77.3945C54.971 77.3945 55.304 77.7144 55.3856 78.1599C55.4755 78.6496 55.2276 79.1055 54.8316 79.178C54.7956 79.1845 54.7595 79.188 54.7235 79.188Z" fill="#E2E8F0"/>
<path d="M58.1063 78.8663C57.7492 78.8663 57.4166 78.5465 57.3347 78.1016C57.2451 77.6117 57.493 77.1558 57.8888 77.083C57.9248 77.0767 57.9607 77.073 57.9962 77.073C58.3533 77.073 58.6867 77.3933 58.7682 77.8387C58.8578 78.3282 58.6099 78.784 58.2141 78.8568C58.1781 78.8636 58.1422 78.8663 58.1063 78.8663Z" fill="#E2E8F0"/>
<path d="M31.2118 81.8718C30.8548 81.8718 30.522 81.5522 30.4403 81.1068C30.3504 80.6172 30.5984 80.1614 30.9943 80.0885C31.0302 80.082 31.0664 80.0789 31.1019 80.0789C31.4594 80.0789 31.7921 80.3985 31.8739 80.8439C31.9637 81.3336 31.7158 81.7897 31.3198 81.8622C31.2839 81.8687 31.2477 81.8718 31.2118 81.8718Z" fill="#E2E8F0"/>
<path d="M34.3212 81.4111C33.9641 81.4111 33.6314 81.0911 33.5496 80.6461C33.4598 80.1561 33.7077 79.7003 34.1037 79.6278C34.1396 79.6209 34.1758 79.6178 34.2117 79.6178C34.5687 79.6178 34.9015 79.9378 34.9832 80.3828C35.0731 80.8729 34.8248 81.3286 34.4292 81.4011C34.3929 81.408 34.3571 81.4111 34.3212 81.4111Z" fill="#E2E8F0"/>
<path d="M37.5204 81.0896C37.1634 81.0896 36.8306 80.7696 36.7489 80.3242C36.659 79.8345 36.907 79.3788 37.3029 79.3063C37.3388 79.2994 37.375 79.2963 37.4109 79.2963C37.768 79.2963 38.1007 79.6163 38.1824 80.0613C38.2723 80.5509 38.0244 81.0071 37.6284 81.0796C37.5925 81.0861 37.5563 81.0896 37.5204 81.0896Z" fill="#E2E8F0"/>
<path d="M40.5092 79.8068H40.5088C40.3931 79.2484 40.7795 78.7106 41.3459 78.6423L46.156 78.0639C46.69 77.9999 47.1793 78.3678 47.2657 78.8983C47.3582 79.4659 46.9553 79.9953 46.3835 80.057L41.5661 80.5764C41.0683 80.63 40.611 80.2968 40.5092 79.8068Z" fill="#1D293D"/>
<path d="M51.792 78.3863C51.8818 78.8759 51.6333 79.3317 51.2377 79.4043C50.8421 79.4768 50.4481 79.1389 50.3582 78.6493C50.2684 78.1593 50.5165 77.7035 50.9125 77.6309C51.3082 77.5584 51.7021 77.8963 51.792 78.3863Z" fill="#1D293D"/>
<path d="M55.2252 77.9253C55.3148 78.4148 55.067 78.8709 54.6711 78.9433C54.2752 79.0165 53.8814 78.6782 53.7918 78.1883C53.7021 77.6983 53.9499 77.2426 54.3458 77.1699C54.7413 77.0975 55.1351 77.4354 55.2252 77.9253Z" fill="#1D293D"/>
<path d="M58.6082 77.6034C58.6981 78.0932 58.4502 78.5494 58.0539 78.622C57.6585 78.6942 57.2645 78.356 57.1746 77.8667C57.0848 77.3769 57.3331 76.9211 57.7289 76.848C58.1247 76.7758 58.5183 77.114 58.6082 77.6034Z" fill="#1D293D"/>
<path d="M31.7094 80.6091C31.7992 81.0992 31.5513 81.555 31.1557 81.6274C30.7597 81.7003 30.366 81.3622 30.2762 80.8725C30.1864 80.3824 30.4343 79.9267 30.8303 79.8542C31.2259 79.7813 31.6196 80.1194 31.7094 80.6091Z" fill="#1D293D"/>
<path d="M34.8227 80.1484C34.9125 80.6381 34.6646 81.0939 34.2686 81.1667C33.873 81.2392 33.4793 80.9011 33.3895 80.4114C33.2996 79.9217 33.5476 79.4656 33.9432 79.3931C34.3392 79.3206 34.7328 79.6587 34.8227 80.1484Z" fill="#1D293D"/>
<path d="M38.018 79.8269C38.1082 80.3166 37.8599 80.7723 37.4643 80.8452C37.0683 80.9177 36.6746 80.5795 36.5848 80.0898C36.495 79.6002 36.7429 79.144 37.1389 79.0715C37.5345 78.999 37.9282 79.3372 38.018 79.8269Z" fill="#1D293D"/>
<path d="M91.5972 30.0645L92.4321 31.2869L97.4371 17.7785L96.7458 16.8461L91.5972 30.0645ZM92.5366 32.5364C92.407 32.5364 92.2844 32.4723 92.2098 32.3643L90.8272 30.3384C90.7533 30.2304 90.7373 30.0931 90.7847 29.9719L96.2684 15.8921C96.3207 15.7583 96.4419 15.6628 96.5848 15.644C96.727 15.6252 96.8684 15.6844 96.9548 15.8001L98.1995 17.4796C98.2789 17.5876 98.2991 17.7277 98.2524 17.8524L92.9074 32.2785C92.8558 32.4165 92.7311 32.5155 92.5847 32.5336C92.5687 32.535 92.5527 32.5364 92.5366 32.5364Z" fill="#1D293D"/>
<path d="M91.4985 32.866C91.3703 32.866 91.247 32.8033 91.1719 32.6937L89.5414 30.3052C89.467 30.1964 89.4519 30.0572 89.5015 29.9352L95.1666 15.8877C95.2266 15.7382 95.372 15.6404 95.5325 15.6404H96.6358C96.8542 15.6404 97.0314 15.8175 97.0314 16.0359C97.0314 16.2543 96.8542 16.4308 96.6358 16.4308H95.7992L90.3139 30.0344L91.6584 32.0046L92.4157 31.7641C92.6245 31.6979 92.8464 31.8137 92.9126 32.0211C92.9787 32.2292 92.8629 32.4518 92.6555 32.5173L91.6177 32.8474C91.5784 32.8598 91.5378 32.866 91.4985 32.866Z" fill="#1D293D"/>
<path d="M96.6351 16.0358H95.5323L89.8672 30.0825L91.4974 32.4708L92.5349 32.1405L91.1513 30.1155L96.6351 16.0358Z" fill="#1D293D"/>
<path d="M54.6658 18.513L54.3975 19.4086L55.3193 19.3377L53.8398 24.2799L55.2018 24.1769L56.9477 18.3405L54.6658 18.513Z" fill="white"/>
<path d="M62.1421 17.8859C61.5032 17.9479 60.9105 18.0949 60.3626 18.3276C59.758 18.5835 59.2417 18.9415 58.8119 19.4017C58.384 19.8612 58.0688 20.4269 57.867 21.1008C57.6811 21.7205 57.6745 22.2414 57.8486 22.6601C58.0233 23.0794 58.3457 23.3873 58.8165 23.5818C59.2853 23.7776 59.8701 23.8482 60.5703 23.7948C60.6178 23.7915 60.6652 23.7869 60.712 23.7822C61.3588 23.7196 61.9661 23.5627 62.5331 23.3128C63.1423 23.0445 63.6658 22.6766 64.1062 22.2104C64.5447 21.7443 64.8598 21.1931 65.0517 20.5548C65.237 19.9351 65.2423 19.4142 65.0682 18.9955C64.8935 18.5762 64.5711 18.2683 64.1016 18.0738C63.6328 17.878 63.046 17.8101 62.3445 17.8688C62.2766 17.8734 62.2087 17.8793 62.1421 17.8859ZM60.9092 22.8941C60.8815 22.8968 60.8538 22.8994 60.8254 22.9014C60.3415 22.9376 59.9657 22.8803 59.698 22.728C59.4329 22.5744 59.2648 22.3482 59.1989 22.0462C59.133 21.7462 59.1593 21.3942 59.28 20.9933C59.4013 20.5852 59.5892 20.2212 59.8417 19.8995C60.0942 19.5771 60.4061 19.3166 60.7799 19.1182C61.1287 18.9322 61.5263 18.8169 61.9733 18.7733C62.003 18.77 62.0333 18.7681 62.0637 18.7654C62.5568 18.7272 62.9386 18.7819 63.2135 18.9283C63.4858 19.0747 63.6566 19.2962 63.7238 19.5909C63.7911 19.8863 63.7654 20.2364 63.6434 20.6445C63.5214 21.0526 63.3329 21.4199 63.079 21.7469C62.8239 22.0759 62.5087 22.3403 62.1302 22.5427C61.7749 22.7333 61.3681 22.8493 60.9092 22.8941Z" fill="white"/>
<path d="M68.4392 19.8218C68.258 19.8392 68.0846 19.8994 67.917 20.0029C67.7391 20.1129 67.6304 20.2378 67.5896 20.3789C67.5449 20.5271 67.5812 20.641 67.7022 20.7218C67.8213 20.8014 67.9759 20.8344 68.1661 20.8202C68.1726 20.8196 68.1784 20.8189 68.1849 20.8183C68.3441 20.8027 68.5085 20.7464 68.6799 20.6468C68.8592 20.5433 68.9698 20.4184 69.0145 20.2715C69.0578 20.1291 69.0177 20.0159 68.8961 19.9298C68.7725 19.8438 68.6307 19.8062 68.4651 19.8192C68.4567 19.8198 68.4483 19.8205 68.4392 19.8218ZM67.7132 22.249C67.532 22.2664 67.3586 22.3272 67.191 22.4308C67.0131 22.5395 66.9043 22.6644 66.861 22.8061C66.8183 22.9543 66.8545 23.0682 66.9742 23.1477C67.0952 23.2286 67.2492 23.2616 67.4395 23.2474C67.4459 23.2467 67.4524 23.2461 67.4582 23.2455C67.6174 23.2299 67.7818 23.1736 67.9533 23.074C68.1331 22.9704 68.2438 22.8456 68.2884 22.6974C68.3318 22.5563 68.291 22.4431 68.1674 22.357C68.0464 22.271 67.9041 22.2341 67.7391 22.2464C67.73 22.247 67.7216 22.2483 67.7132 22.249Z" fill="white"/>
<path d="M71.0549 17.2674L70.7867 18.1628L71.706 18.0924L70.2266 23.0344L71.5885 22.9309L73.3361 17.0949L71.0549 17.2674Z" fill="white"/>
<path d="M76.0096 16.8922L75.0766 20.0092L75.0899 20.0085C75.4087 19.8751 75.7041 19.7697 75.9756 19.6944C76.2183 19.627 76.4724 19.581 76.7338 19.5557C76.7638 19.5523 76.7938 19.5497 76.8245 19.5477C77.36 19.507 77.7321 19.587 77.9375 19.7884C78.1442 19.9885 78.1962 20.2579 78.0955 20.594C78.0008 20.9121 77.7781 21.1822 77.4293 21.4016C77.0986 21.611 76.7198 21.7363 76.2983 21.777C76.2763 21.7797 76.2543 21.7817 76.2316 21.783C75.9455 21.8044 75.6715 21.7837 75.4067 21.7203C75.1426 21.6563 74.9439 21.5663 74.8105 21.4503L73.8789 22.2305C74.0876 22.3819 74.3904 22.5006 74.7885 22.5846C75.184 22.67 75.6121 22.6953 76.0689 22.6606C76.1076 22.658 76.1449 22.6546 76.1829 22.6513C76.6864 22.602 77.1612 22.4812 77.6067 22.2885C78.0875 22.0818 78.4963 21.819 78.8324 21.4989C79.1699 21.1788 79.3919 20.8327 79.5033 20.4606C79.6093 20.1119 79.6027 19.8018 79.486 19.527C79.3686 19.2536 79.1365 19.0429 78.7871 18.8968C78.4383 18.7501 77.9702 18.6994 77.3826 18.7434C77.3513 18.7461 77.3193 18.7488 77.288 18.7514C77.1532 18.7648 77.0152 18.7834 76.8752 18.8081C76.7705 18.8268 76.6691 18.8475 76.5711 18.8695L76.9218 17.6971L79.8527 17.4744L80.1208 16.5801L76.0096 16.8922Z" fill="white"/>
<path d="M67.9132 13.5977L69.4251 13.3498C69.6181 13.3182 69.7774 13.4995 69.7211 13.6863L69.1764 15.0127C69.1469 15.1102 69.0645 15.1824 68.9642 15.1982L67.4544 15.4386C67.2621 15.4688 67.1041 15.2881 67.1597 15.1013L67.7031 13.7825C67.7319 13.6856 67.8137 13.6142 67.9132 13.5977Z" fill="white"/>
<path d="M91.7329 67.8915C84.5197 64.9446 82.3755 57.0452 83.9709 52.9434C86.3925 46.718 94.1208 47.5575 95.225 53.59C98.9855 48.7451 106.231 51.5619 105.511 58.2023C105.036 62.5782 99.4933 68.6006 91.7329 67.8915Z" fill="#FB2C36"/>
<path d="M92.9811 67.3559C92.6183 67.3559 92.2495 67.3409 91.8756 67.3089C88.1514 65.7584 85.8378 62.8049 84.7656 59.812C86.0669 61.8375 88.0524 63.6554 90.7983 64.7586C91.2424 64.8018 91.6798 64.8226 92.1084 64.8226C98.7891 64.8226 103.416 59.7688 103.803 56.0056C103.903 55.0447 103.813 54.1687 103.578 53.3929C104.523 54.4382 105.153 56.0075 104.921 58.1386C104.493 62.0916 99.7009 67.3562 92.9811 67.3559Z" fill="#E7000B"/>
<path d="M84.2762 58.0443C83.9129 56.2214 84.0099 54.4861 84.5266 53.158C85.6535 50.2619 87.8397 49.2465 89.6685 49.2465C89.8259 49.2465 89.9807 49.2538 90.1314 49.2685C91.2179 49.3721 92.1874 49.8176 92.9551 50.5222C92.1343 49.9963 91.1959 49.7253 90.243 49.7253C88.0933 49.7253 85.866 51.1026 84.7231 54.0419C84.2901 55.1549 84.1321 56.5468 84.2762 58.0443Z" fill="#FFA2A2"/>
<path d="M95.5296 54.6307C95.4998 54.4653 95.465 54.3045 95.4258 54.1476C95.5296 54.1102 95.6225 54.0439 95.6922 53.9537C96.8027 52.5228 98.3458 51.7462 99.9194 51.7462C100.529 51.7462 101.144 51.863 101.74 52.1033C102.176 52.2797 102.613 52.5323 103.017 52.8614C102.18 52.4357 101.248 52.2107 100.305 52.2107C98.5824 52.2107 96.823 52.9635 95.5296 54.6307Z" fill="#FFA2A2"/>
<path d="M91.8748 67.3089C99.1702 67.9285 104.469 62.3052 104.921 58.1386C105.285 54.7837 103.517 52.8211 101.74 52.1032C99.6079 51.2422 97.2342 51.9678 95.6932 53.9536C95.5498 54.1378 95.3115 54.2216 95.0844 54.1656C94.8574 54.1101 94.6841 53.9266 94.6415 53.6968C94.1889 51.2245 92.4171 49.4862 90.1277 49.2681C88.22 49.0858 85.7469 50.0128 84.5234 53.1581C83.0041 57.0644 85.1187 64.4957 91.8748 67.3089ZM92.9609 68.5409C92.5351 68.5409 92.1079 68.5211 91.6791 68.4822C91.6201 68.4769 91.5634 68.463 91.5088 68.4406C88.1267 67.0587 85.4616 64.4472 84.005 61.0864C82.7569 58.2088 82.5328 55.0062 83.4187 52.7286C84.6235 49.6296 87.3028 47.8078 90.2405 48.0879C92.7114 48.3232 94.6908 49.9657 95.5207 52.38C97.3694 50.6198 99.8828 50.0748 102.184 51.0039C104.921 52.1101 106.458 54.9607 106.1 58.2663C105.836 60.6962 104.161 63.4346 101.728 65.4138C99.221 67.4523 96.1481 68.5409 92.9609 68.5409Z" fill="#1D293D"/>
<path d="M87.2001 58.2391C87.1035 58.2391 87.0069 58.2282 86.9115 58.2044C85.939 57.9673 85.4444 56.5756 85.8057 55.0955C86.1316 53.7611 87.0423 52.8104 87.9311 52.8104C88.0277 52.8104 88.1243 52.822 88.2196 52.8452C89.1915 53.0829 89.6867 54.4747 89.3248 55.9547C88.9995 57.2892 88.0882 58.2391 87.2001 58.2391Z" fill="#FF6467"/>
<path d="M88.5214 61.5953C88.1496 61.5953 87.7418 61.4026 87.4414 61.0463C86.9648 60.4813 86.939 59.7184 87.3841 59.3434C87.5488 59.2045 87.7547 59.1382 87.9727 59.1382C88.3445 59.1382 88.7523 59.3312 89.0527 59.6875C89.5294 60.2529 89.5551 61.0151 89.11 61.3902C88.9453 61.529 88.7395 61.5953 88.5214 61.5953Z" fill="#FF6467"/>
</svg>
